<svg viewBox="0 0 402 91" fill="none" xmlns="http://www.w3.org/2000/svg" style="width:auto" height="60"><title>Foxbox Digital Logo</title><path d="M24.4688 34.9445C24.4688 34.9445 29.0241 27.1497 34.4483 22.3118C34.4483 22.3118 30.3521 20.1964 31.0392 16.9458C31.7263 13.6953 33.9462 12.1244 37.7154 10.3457C41.4845 8.56692 48.4051 5.85754 49.6571 4.99622C50.9091 4.1349 52.2998 1.85453 50.7902 -0.00341797C50.7902 -0.00341797 52.835 0.201188 53.7236 1.18791C54.6122 2.17464 55.1969 4.3857 56.2903 5.12492C57.3838 5.86414 58.2162 7.43499 57.3474 9.80445C56.4786 12.1739 54.8369 14.3091 51.9728 16.8039C51.9728 16.8039 51.9266 19.939 49.5977 21.6782C47.2688 23.4173 42.0824 26.7537 38.6502 33.2285C36.5871 37.1164 33.7682 40.554 30.3587 43.34L24.4688 34.9445Z" fill="#F78042"></path><path d="M42.2836 16.1703C43.2184 15.5763 42.1878 15.8898 41.6229 16.1043C37.9198 17.4243 34.8807 17.8797 32.9184 17.7543C31.0685 17.6256 31.2932 16.0845 31.3229 15.9096C31.1993 16.2545 31.0988 16.6073 31.0223 16.9656C30.3385 20.2162 34.4347 22.3316 34.4347 22.3316C36.0534 20.7904 41.352 16.7544 42.2836 16.1703Z" fill="#F75A18"></path><path d="M56.2897 5.12819C55.9986 4.9141 55.7499 4.64776 55.5564 4.34277C55.5564 4.34277 55.8174 4.75198 55.596 5.77501C55.3747 6.79804 55.2095 9.34571 50.3965 12.7052C51.8533 14.3189 51.9722 16.8006 51.9722 16.8006C54.8362 14.309 56.4879 12.1442 57.3468 9.80772C58.2057 7.47126 57.3832 5.86412 56.2897 5.12819Z" fill="#F75A18"></path><path d="M49.5977 21.6782C51.9266 19.939 51.9728 16.8039 51.9728 16.8039C51.9728 16.8039 51.7779 12.7646 48.8577 11.6426C48.8874 11.6723 51.8308 14.9196 48.6232 17.5431C45.4156 20.1667 34.108 26.5821 32.7041 34.6508C32.7041 34.6508 34.8117 35.3735 36.9324 36.0765C37.5504 35.1571 38.1205 34.2065 38.6403 33.2285C42.0725 26.7537 47.2589 23.4173 49.5877 21.6782" fill="#F75A18"></path><path d="M40.3281 35.73C43.9354 36.4494 44.9529 38.5681 49.908 36.4659L40.3281 35.73Z" fill="#F78042"></path><path d="M54.2982 53.2766C58.2623 63.2759 58.5232 63.5234 59.6926 64.1669C60.862 64.8104 60.5978 65.8929 59.2896 66.6156C57.9815 67.3383 57.0136 66.0513 57.0598 65.5826C57.0705 64.7694 56.8811 63.9659 56.5082 63.2429C56.0325 62.1836 52.4582 59.3158 52.4582 59.3158C52.4582 59.3158 51.6324 57.0552 51.9561 55.8342C52.2798 54.6131 54.2982 53.2865 54.2982 53.2865" fill="#F75A18"></path><g styles="mix-blend-mode:multiply" opacity="0.15"><g styles="mix-blend-mode:multiply" opacity="0.15"><g styles="mix-blend-mode:multiply" opacity="0.15"><path d="M59.2896 66.6058C60.611 65.8831 60.8654 64.7908 59.6926 64.1571C58.5199 63.5235 58.2788 63.276 54.3015 53.2668C54.3015 53.2668 52.2798 54.5869 51.9561 55.8112C51.6324 57.0355 52.4582 59.2928 52.4582 59.2928C52.4582 59.2928 53.9381 60.4841 55.1207 61.6029C55.1207 61.6029 54.612 60.6425 55.2529 60.2828C55.8937 59.9231 56.3793 60.4874 56.6436 61.1244C56.9079 61.7613 57.6908 63.5169 58.3548 64.0614C59.0188 64.606 59.7653 65.2198 59.3062 65.5927C58.847 65.9656 58.0013 66.6256 57.2382 66.058C57.3386 66.2268 57.4713 66.3742 57.6288 66.4918C57.7862 66.6094 57.9653 66.6949 58.1558 66.7433C58.3463 66.7917 58.5445 66.8021 58.739 66.774C58.9336 66.7459 59.1207 66.6798 59.2896 66.5794" fill="#231F20"></path></g></g></g><path d="M51.3516 59.1704C51.3516 59.1704 60.4228 72.1002 61.5723 73.1595C62.7219 74.2188 63.7195 75.0339 64.5454 75.3244C65.3712 75.6148 65.9791 76.5454 63.6006 77.2615C61.2222 77.9776 59.1774 78.2119 59.1642 76.8919C59.151 75.5719 59.0915 73.7436 57.8032 73.1364C56.9382 72.7907 56.2432 72.1202 55.8674 71.2685C55.5965 70.7042 50.4234 64.6684 44.8076 61.6059C44.8076 61.6059 45.2073 59.705 45.6863 59.4212C46.1653 59.1374 51.3516 59.1836 51.3516 59.1836" fill="#F78042"></path><path d="M64.5288 75.3245C63.7195 75.0341 62.7218 74.2157 61.5557 73.1596C60.3896 72.1036 51.335 59.1706 51.335 59.1706C51.335 59.1706 46.1454 59.1277 45.6664 59.4082C45.1874 59.6887 44.791 61.5928 44.791 61.5928C46.0881 62.3173 47.3283 63.1392 48.5007 64.0514C48.4376 63.8851 48.4105 63.7073 48.4213 63.5297C48.432 63.3521 48.4803 63.1789 48.5631 63.0214C48.6458 62.8638 48.7611 62.7257 48.9012 62.6159C49.0414 62.5062 49.2032 62.4275 49.3761 62.3849C50.6975 61.9492 52.0188 62.9756 53.2312 64.5332C54.4435 66.0909 59.8611 73.9055 62.0447 75.0935C63.5774 75.935 63.6105 76.2056 62.5038 76.4861C61.3972 76.7666 59.4118 77.1693 59.141 76.5983C59.141 76.6907 59.141 76.7798 59.141 76.8656C59.141 78.2121 61.1825 77.9679 63.5609 77.2485C65.9394 76.529 65.3117 75.5984 64.5057 75.3113" fill="#F75A18"></path><path d="M21.5083 68.3976C21.5083 68.3976 19.8005 84.7099 19.6485 86.2181C19.4529 87.5062 18.9373 88.7247 18.1488 89.7624C17.7656 90.2178 18.0827 91.0824 19.3941 90.9867C20.7056 90.891 22.8033 89.6667 23.0807 89.1585C23.2313 88.8944 23.2939 88.5893 23.2595 88.2873C23.225 87.9854 23.0953 87.7022 22.8891 87.4787C22.4135 86.8484 22.1459 84.8386 23.0906 82.7926C23.5135 81.9379 23.7811 81.4032 23.7513 80.5254C23.7216 78.519 24.9108 71.7637 27.1571 66.9654C27.1571 66.9654 25.3799 65.5892 24.9339 65.873C24.488 66.1568 21.4918 68.391 21.4918 68.391" fill="#F78042"></path><path d="M21.2016 89.1023C22.0373 88.6007 21.9845 87.7823 21.7466 86.8913C21.5088 86.0002 21.7466 84.7363 22.219 83.215C22.6914 81.6936 22.6055 80.4726 22.7343 78.7598C23.0262 76.3362 23.4552 73.9309 24.0194 71.5557C24.2539 70.7934 24.3233 69.4107 22.7905 69.9288C22.3578 70.0721 21.9737 70.3335 21.6819 70.6834C21.39 71.0333 21.2019 71.4578 21.1388 71.9088V71.9419C20.6268 76.8326 19.758 85.1422 19.649 86.2115C19.4545 87.5018 18.9388 88.7228 18.1492 89.7624C18.1145 89.8045 18.0856 89.8511 18.0633 89.901C17.951 90.957 20.3757 89.604 21.2016 89.1056" fill="#F78042"></path><path d="M19.3947 90.9933C20.716 90.9009 22.8038 89.6733 23.0813 89.1651C23.2319 88.901 23.2945 88.5959 23.26 88.2939C23.2256 87.992 23.0959 87.7088 22.8897 87.4853C22.414 86.855 22.1464 84.8452 23.0912 82.7992C23.514 81.9445 23.7816 81.4098 23.7518 80.532C23.7221 78.5256 24.9113 71.7703 27.1576 66.9719C27.1576 66.9719 25.3804 65.5958 24.9345 65.8796C24.4885 66.1634 21.4923 68.3976 21.4923 68.3976C21.4923 68.3976 21.3569 69.8529 21.1422 71.9419C21.2053 71.4908 21.3934 71.0663 21.6852 70.7164C21.9771 70.3665 22.3611 70.1052 22.7939 69.9618C24.3266 69.4437 24.2573 70.8265 24.0227 71.5888C23.4585 73.964 23.0295 76.3692 22.7377 78.7929C22.6089 80.5056 22.7113 81.7267 22.2224 83.248C21.7335 84.7693 21.5154 86.0267 21.75 86.9243C21.9845 87.8219 22.0407 88.6337 21.2049 89.1354C20.3692 89.637 17.9544 90.9867 18.0667 89.9307C17.8388 90.4026 18.2088 91.0989 19.3881 91.0164" fill="#F75A18"></path><path d="M29.4003 66.1865C29.4003 66.1865 29.9486 72.0936 29.2549 74.3344C28.5612 76.5752 27.9336 77.1857 28.7925 77.7863C29.6513 78.3869 31.1874 77.6444 31.7886 76.7963C32.3898 75.9482 32.74 74.9185 32.0925 74.2024C31.4451 73.4863 31.194 72.6547 33.219 65.0315C33.219 65.0315 31.0784 63.9853 30.5234 64.3714C29.9685 64.7575 29.4003 66.1667 29.4003 66.1667" fill="#F78042"></path><g styles="mix-blend-mode:multiply" opacity="0.15"><g styles="mix-blend-mode:multiply" opacity="0.15"><g styles="mix-blend-mode:multiply" opacity="0.15"><path d="M29.4003 66.1865C29.4003 66.1865 29.9486 72.0936 29.2549 74.3344C28.5612 76.5752 27.9336 77.1857 28.7925 77.7863C29.6513 78.3869 31.1874 77.6444 31.7886 76.7963C32.3898 75.9482 32.74 74.9185 32.0925 74.2024C31.4451 73.4863 31.194 72.6547 33.219 65.0315C33.219 65.0315 31.0784 63.9853 30.5234 64.3714C29.9685 64.7575 29.4003 66.1667 29.4003 66.1667" fill="#231F20"></path></g></g></g><path d="M47.203 25.2654L14.8066 34.9016L9.16113 38.6109L12.7486 41.6899C12.7486 41.6899 21.5191 47.4618 29.3713 52.6165L45.4456 28.3807L47.203 25.2654Z" fill="#F78042"></path><path d="M47.2028 25.2654L45.4454 28.3807L29.3711 52.6198C35.6806 56.7615 41.3988 60.5071 41.5012 60.5401C41.7324 60.6226 54.3282 59.8206 54.3282 59.8206L54.6784 51.5176L47.2028 25.2654Z" fill="#F75A18"></path><path d="M45.4445 28.382L9.16016 38.6118L18.0418 70.0514L54.3262 59.8215L45.4445 28.382Z" fill="#F78042"></path><path d="M11.2315 22.2688C11.2315 22.2688 6.99321 22.5163 6.89741 22.2952C6.75982 21.9845 6.71177 21.6417 6.75867 21.3052C6.795 20.7706 7.65719 15.4904 12.424 9.75488C12.424 9.75488 11.6477 10.768 12.1729 11.824C12.6982 12.8801 13.9138 15.6323 13.1144 19.7212C13.1144 19.7212 12.6817 21.3382 12.1234 21.82" fill="#F78042"></path><path d="M6.74578 21.2954C6.69888 21.6319 6.74694 21.9748 6.88452 22.2855C6.98032 22.5066 11.2186 22.2591 11.2186 22.2591L12.0973 21.7938C12.6688 21.3119 13.0883 19.6949 13.0883 19.6949C13.9009 15.616 12.682 12.8703 12.16 11.8077C11.6381 10.7451 12.4111 9.73853 12.4111 9.73853L12.2823 9.90023C11.2318 11.2896 11.9916 13.2003 12.2823 14.6623C12.6126 16.1737 12.1303 18.4145 11.1459 18.6983C10.0898 19.0143 9.10879 19.5408 8.26204 20.246C6.54097 21.7443 7.27102 18.9458 7.27102 18.926C7.01378 19.6967 6.83017 20.4901 6.72266 21.2954" fill="#F75A18"></path><path d="M23.8806 21.7277C28.0991 17.4375 28.3798 12.7019 28.3798 12.7019C24.0854 14.1605 20.6169 17.4606 18.8661 19.3879C16.5174 18.784 13.0158 18.4474 10.198 19.9984C7.15223 21.6749 5.90355 23.9585 5.38822 25.4403C5.30894 25.7043 5.30233 25.9056 5.4708 25.9221C6.46182 26.1696 4.89601 28.6875 4.19239 29.8459C3.66054 30.892 1.16318 34.466 0.376968 35.456C-0.40924 36.4461 0.168854 37.7661 1.45387 37.6935C2.21528 37.6369 2.95714 37.4258 3.63411 37.0731L3.79268 36.9873C3.79268 36.9873 11.1692 31.9315 14.7599 29.7007C15.86 29.0143 16.8939 28.5786 15.2522 30.1627C13.6104 31.7467 7.27776 36.6738 6.00265 37.4856C4.90592 38.1753 3.14852 39.1356 2.57042 38.898C2.64158 39.0384 2.74523 39.1599 2.87277 39.2523C3.00031 39.3447 3.14806 39.4054 3.30378 39.4293C4.38399 39.6868 5.28581 39.4293 6.3495 38.898C7.4132 38.3667 13.4485 34.6772 13.4485 34.6772H13.4815C20.0652 30.826 23.8542 30.3211 23.8542 30.3211C22.6803 29.4268 21.3443 28.7679 19.9198 28.3806C18.6943 28.0803 19.061 27.5325 19.5664 27.0012C21.3799 25.0211 24.9179 23.0213 24.9179 23.0213C25.1392 22.8959 25.5554 22.6385 25.5554 22.6385C25.0853 22.2706 24.5588 21.9808 23.9962 21.7805L23.8806 21.7376V21.7277ZM14.6311 23.0576C14.5722 23.5049 14.3786 23.9238 14.0761 24.2588C13.8185 24.5294 11.0535 26.6316 9.87753 27.4566C9.24989 27.8988 8.84357 27.9219 9.44479 26.9946C10.046 26.0673 11.7572 23.7275 14.0497 22.8827C14.3173 22.7573 14.7104 22.7078 14.6311 23.0576Z" fill="#F78042"></path><path d="M25.7667 15.6985C21.6639 17.2165 19.4902 20.8565 19.4902 20.8565C20.349 20.054 21.3599 19.4312 22.4633 19.025C22.4633 19.025 23.3948 18.7841 23.2165 19.6322C22.8618 20.6922 22.2916 21.6674 21.5416 22.4967C25.5916 19.3154 25.7667 15.6985 25.7667 15.6985Z" fill="#F75A18"></path><path d="M21.5083 37.8783C23.8405 39.6966 26.579 40.7493 29.1061 40.0728C32.4888 39.1719 33.7705 35.6672 34.3916 32.6179C34.5584 31.9174 34.8725 31.2604 35.3132 30.6907C35.4817 30.4564 35.2108 30.156 34.8805 29.9283C33.5195 28.8954 31.4284 28.836 28.3827 26.9583C27.0203 26.125 25.8296 25.0397 24.8745 23.7605C24.8181 23.7143 24.7734 23.6554 24.7442 23.5887C24.7149 23.522 24.7018 23.4494 24.706 23.3766C24.7102 23.3039 24.7315 23.2332 24.7682 23.1703C24.805 23.1074 24.8561 23.0541 24.9174 23.0146C24.9174 23.0146 21.3795 25.0376 19.5626 27.0078C19.0605 27.5391 18.6938 28.0869 19.9194 28.3806C21.3435 28.7614 22.6806 29.4136 23.857 30.3013C23.857 30.3013 20.068 30.8128 13.4844 34.6508C15.8826 33.7333 19.1893 36.0533 21.5083 37.8651" fill="#F75A18"></path><path d="M12.2822 9.90023L12.4111 9.73853C12.3648 9.79133 12.3219 9.84743 12.2822 9.90023Z" fill="#F78042"></path><path d="M17.5674 19.9291C17.3659 20.5891 17.0818 20.8828 16.5235 21.5428C15.9652 22.2028 18.0299 20.269 18.8656 19.3878C17.7184 19.0914 16.5418 18.9232 15.3574 18.8862C15.3574 18.8862 17.7689 19.2756 17.5674 19.9291Z" fill="#F75A18"></path><path d="M89.3864 33.839V41.8319H103.396V47.442H89.3864V58.461H82.3799V28.219H105.262V33.8291L89.3864 33.839Z" fill="currentColor"></path><path d="M113.416 57.283C111.529 56.3145 109.95 54.8405 108.854 53.0259C107.776 51.1445 107.209 49.0143 107.209 46.8465C107.209 44.6786 107.776 42.5485 108.854 40.6671C109.95 38.8525 111.529 37.3785 113.416 36.41C115.465 35.4005 117.719 34.8755 120.003 34.8755C122.288 34.8755 124.541 35.4005 126.59 36.41C128.473 37.3817 130.05 38.8552 131.146 40.6671C132.221 42.5492 132.787 44.6791 132.787 46.8465C132.787 49.0139 132.221 51.1438 131.146 53.0259C130.053 54.836 128.481 56.3093 126.603 57.283C124.554 58.2903 122.3 58.8141 120.016 58.8141C117.732 58.8141 115.479 58.2903 113.429 57.283H113.416ZM124.274 51.5343C125.376 50.366 125.926 48.8029 125.926 46.8448C125.926 44.8868 125.376 43.3247 124.274 42.1587C123.729 41.5821 123.067 41.1278 122.332 40.8258C121.597 40.5237 120.807 40.3807 120.013 40.4064C119.214 40.3802 118.419 40.5228 117.679 40.8248C116.939 41.1267 116.271 41.5813 115.719 42.1587C114.593 43.3247 114.031 44.8868 114.031 46.8448C114.031 48.8029 114.593 50.366 115.719 51.5343C116.271 52.1113 116.939 52.5653 117.679 52.8667C118.419 53.1681 119.214 53.3101 120.013 53.2833C120.807 53.3094 121.597 53.1669 122.332 52.8654C123.066 52.5639 123.728 52.1102 124.274 51.5343Z" fill="currentColor"></path><path d="M151.333 58.4708L146.229 51.3393L140.943 58.4708H133.597L142.552 46.7588L133.901 35.2085H141.469L146.401 41.9935L151.461 35.2085H158.643L149.991 46.574L158.99 58.4543L151.333 58.4708Z" fill="currentColor"></path><path d="M181.935 36.3669C183.692 37.3453 185.139 38.7976 186.11 40.558C187.156 42.4917 187.681 44.6638 187.633 46.8612C187.675 49.0475 187.151 51.2074 186.11 53.1314C185.139 54.8918 183.692 56.3441 181.935 57.3225C180.13 58.323 178.096 58.8361 176.032 58.8108C172.832 58.8108 170.395 57.8032 168.721 55.7879V58.4676H162.276V26.4006H169.022V37.677C170.722 35.807 173.059 34.8709 176.032 34.8687C178.096 34.8466 180.131 35.363 181.935 36.3669ZM179.124 51.5473C180.225 50.3791 180.775 48.816 180.775 46.8579C180.775 44.8998 180.225 43.3378 179.124 42.1718C177.99 41.0489 176.459 40.4188 174.862 40.4188C173.266 40.4188 171.734 41.0489 170.601 42.1718C169.5 43.3378 168.949 44.8998 168.949 46.8579C168.949 48.816 169.5 50.3791 170.601 51.5473C171.736 52.6678 173.267 53.2963 174.862 53.2963C176.458 53.2963 177.989 52.6678 179.124 51.5473Z" fill="currentColor"></path><path d="M196.599 57.283C194.711 56.3147 193.13 54.8406 192.033 53.0259C190.957 51.1437 190.392 49.0138 190.392 46.8464C190.392 44.6791 190.957 42.5491 192.033 40.667C193.13 38.8522 194.711 37.3782 196.599 36.4099C198.647 35.4005 200.9 34.8755 203.184 34.8755C205.468 34.8755 207.721 35.4005 209.769 36.4099C211.648 37.3828 213.22 38.8563 214.311 40.667C215.39 42.5484 215.957 44.6786 215.957 46.8464C215.957 49.0143 215.39 51.1445 214.311 53.0259C213.219 54.837 211.646 56.3106 209.766 57.283C207.717 58.2904 205.464 58.8144 203.181 58.8144C200.897 58.8144 198.644 58.2904 196.595 57.283H196.599ZM207.454 51.5342C208.555 50.366 209.105 48.8028 209.105 46.8448C209.105 44.8867 208.555 43.3247 207.454 42.1587C206.908 41.5821 206.246 41.1278 205.511 40.8257C204.777 40.5236 203.986 40.3807 203.192 40.4063C202.393 40.3802 201.598 40.5228 200.858 40.8247C200.118 41.1267 199.45 41.5812 198.898 42.1587C197.775 43.3137 197.213 44.8812 197.213 46.8613C197.213 48.8413 197.776 50.4045 198.901 51.5507C199.453 52.1277 200.121 52.5818 200.861 52.8832C201.601 53.1846 202.397 53.3265 203.196 53.2998C203.99 53.3232 204.78 53.178 205.514 52.8736C206.248 52.5693 206.909 52.1127 207.454 51.5342Z" fill="currentColor"></path><path d="M234.512 58.4708L229.408 51.3393L224.123 58.4708H216.779L225.731 46.7588L217.08 35.2085H224.651L229.587 42.0067L234.647 35.2217H241.809L233.157 46.5872L242.156 58.4675L234.512 58.4708Z" fill="currentColor"></path><path d="M258.174 28.219H271.929C275.217 28.219 278.123 28.846 280.647 30.1C283.071 31.2643 285.111 33.0963 286.527 35.3802C287.928 37.6573 288.628 40.3083 288.628 43.3334C288.628 46.3585 287.928 49.0085 286.527 51.2833C285.112 53.5681 283.071 55.4003 280.647 56.5635C278.123 57.8175 275.217 58.4445 271.929 58.4445H258.174V28.219ZM271.582 52.7222C274.61 52.7222 277.026 51.8796 278.83 50.1943C280.634 48.5091 281.534 46.2265 281.532 43.3466C281.532 40.4667 280.631 38.1831 278.83 36.4956C277.029 34.8082 274.613 33.9656 271.582 33.9678H265.18V52.7222H271.582Z" fill="currentColor"></path><path d="M293.774 30.8985C293.405 30.5566 293.111 30.1422 292.91 29.6814C292.708 29.2206 292.604 28.7233 292.604 28.2205C292.604 27.7178 292.708 27.2204 292.91 26.7596C293.111 26.2988 293.405 25.8845 293.774 25.5425C294.604 24.804 295.689 24.416 296.8 24.4601C297.904 24.4129 298.986 24.7828 299.829 25.4963C300.204 25.8155 300.503 26.2137 300.705 26.6622C300.907 27.1107 301.008 27.5984 300.999 28.0902C301.013 28.6113 300.916 29.1295 300.715 29.6104C300.513 30.0912 300.211 30.5236 299.829 30.8787C298.981 31.5876 297.911 31.9777 296.805 31.9813C295.699 31.9849 294.627 31.6019 293.774 30.8985ZM293.444 35.2217H300.193V58.4708H293.427L293.444 35.2217Z" fill="currentColor"></path><path d="M330.455 35.2217V54.58C330.455 58.8437 329.345 62.0129 327.126 64.0876C324.906 66.1622 321.661 67.1996 317.39 67.1996C315.229 67.211 313.076 66.9347 310.989 66.3778C309.174 65.9276 307.468 65.1198 305.971 64.0018L308.653 59.1605C309.758 60.0339 311.021 60.687 312.373 61.0845C313.827 61.5525 315.344 61.7929 316.872 61.7973C319.206 61.7973 320.93 61.2715 322.042 60.2199C323.154 59.1682 323.704 57.5765 323.693 55.4446V54.4546C321.932 56.3841 319.48 57.3488 316.34 57.3488C314.301 57.3725 312.287 56.8906 310.48 55.9462C308.737 55.0379 307.277 53.6679 306.261 51.9861C305.241 50.1951 304.704 48.1696 304.704 46.1087C304.704 44.0477 305.241 42.0223 306.261 40.2312C307.276 38.5487 308.736 37.1784 310.48 36.2711C312.287 35.3256 314.3 34.8426 316.34 34.8653C319.714 34.8653 322.281 35.9741 324.04 38.1918V35.2217H330.455ZM322.081 50.2371C323.174 49.1417 323.787 47.6583 323.787 46.112C323.787 44.5656 323.174 43.0823 322.081 41.9869C320.941 40.9374 319.477 40.4116 317.691 40.4094C315.905 40.4072 314.434 40.933 313.278 41.9869C312.731 42.5259 312.297 43.1682 312 43.8764C311.704 44.5845 311.551 45.3444 311.551 46.112C311.551 46.8795 311.704 47.6395 312 48.3476C312.297 49.0557 312.731 49.698 313.278 50.2371C314.434 51.2865 315.906 51.8112 317.694 51.8112C319.483 51.8112 320.945 51.2865 322.081 50.2371Z" fill="currentColor"></path><path d="M337.072 30.8988C336.704 30.5563 336.41 30.1418 336.21 29.6811C336.009 29.2204 335.905 28.7233 335.905 28.2208C335.905 27.7183 336.009 27.2212 336.21 26.7605C336.41 26.2998 336.704 25.8852 337.072 25.5428C337.903 24.8035 338.989 24.4154 340.101 24.4603C341.204 24.413 342.285 24.783 343.127 25.4966C343.502 25.8158 343.801 26.214 344.003 26.6625C344.205 27.111 344.305 27.5986 344.296 28.0904C344.311 28.6116 344.214 29.1298 344.012 29.6106C343.811 30.0915 343.509 30.5239 343.127 30.879C342.279 31.5879 341.209 31.978 340.103 31.9816C338.997 31.9852 337.925 31.6022 337.072 30.8988ZM336.741 35.2219H343.487V58.4711H336.741V35.2219Z" fill="currentColor"></path><path d="M364.757 57.3457C364.022 57.869 363.192 58.2435 362.313 58.4479C361.316 58.6958 360.291 58.8189 359.264 58.8142C356.496 58.8142 354.354 58.1091 352.839 56.6989C351.324 55.2886 350.567 53.2195 350.569 50.4914V40.9211H346.979V35.74H350.569V30.0803H357.318V35.74H363.112V40.9211H357.318V50.3858C357.318 51.3648 357.57 52.1205 358.075 52.6529C358.355 52.93 358.69 53.1447 359.059 53.2829C359.428 53.4211 359.822 53.4797 360.215 53.4549C361.195 53.4832 362.156 53.1784 362.941 52.5902L364.757 57.3457Z" fill="currentColor"></path><path d="M386.257 37.4461C388.188 39.1621 389.154 41.7483 389.154 45.2046V58.4709H382.837V55.5735C381.569 57.7339 379.205 58.8142 375.745 58.8142C374.147 58.8531 372.56 58.5446 371.094 57.9099C369.872 57.3784 368.829 56.508 368.088 55.4019C367.392 54.32 367.032 53.0573 367.051 51.7718C367.051 49.6113 367.865 47.9118 369.495 46.6731C371.125 45.4345 373.641 44.8152 377.043 44.8152H382.405C382.405 43.3455 381.958 42.2147 381.064 41.4227C380.169 40.6307 378.829 40.2346 377.043 40.2346C375.801 40.2347 374.567 40.4318 373.386 40.8188C372.283 41.1572 371.251 41.6916 370.337 42.3962L367.916 37.6837C369.306 36.7356 370.849 36.0345 372.478 35.6112C374.261 35.1188 376.102 34.8712 377.952 34.8753C381.555 34.8753 384.323 35.7322 386.257 37.4461ZM380.502 53.4779C381.397 52.946 382.072 52.1113 382.405 51.1249V48.7456H377.78C375.012 48.7456 373.628 49.6531 373.628 51.4682C373.615 51.8676 373.701 52.2641 373.878 52.6222C374.056 52.9804 374.319 53.2891 374.645 53.5208C375.322 54.0257 376.25 54.2798 377.436 54.2798C378.513 54.2994 379.573 54.0219 380.502 53.4779Z" fill="currentColor"></path><path d="M395.252 26.4006H402.001V58.4643H395.252V26.4006Z" fill="currentColor"></path></svg>
